<svg width="76" height="52" viewBox="0 0 76 52" fill="none" xmlns="http://www.w3.org/2000/svg">
<rect width="76" height="52" fill="#54D3C2"/>
<g clip-path="url(#clip0_106_17)">
<path d="M57.1635 42.7218C50.1448 42.7218 44.419 36.9953 44.419 29.9756C44.419 23.1406 56.0553 7.99291 56.5171 7.34637C56.8865 6.88454 57.533 6.88454 57.9024 7.34637C58.3641 7.99291 70.0004 23.1406 70.0004 29.9756C70.0004 36.9953 64.1823 42.7218 57.1635 42.7218ZM57.1635 9.28601C54.67 12.7035 46.1737 24.6185 46.1737 29.9756C46.1737 36.0716 51.1607 40.9669 57.1635 40.9669C63.2588 40.9669 68.2458 35.9793 68.2458 29.9756C68.2458 24.6185 59.657 12.7035 57.1635 9.28601Z" fill="white" stroke="white"/>
<path d="M56.6064 38.1928C56.237 38.1928 55.8676 37.9157 55.7752 37.5462C55.5905 37.0844 55.8676 36.6226 56.3293 36.4379C59.9311 35.3295 62.6093 32.5586 63.6251 29.0487C63.7175 28.5869 64.2716 28.3098 64.7334 28.4022C65.1951 28.4945 65.4722 29.0487 65.3798 29.5105C64.1793 33.6669 61.0393 36.8997 56.9758 38.1928C56.7911 38.1928 56.6988 38.1928 56.6064 38.1928Z" fill="white" stroke="white"/>
<path d="M31.2121 8.63989H29.4574L29.5497 23.7876L7.84704 23.88L7.75469 8.73225H6L6.09235 41.0597H7.93939L7.84704 25.6349L29.5497 25.5425L29.6421 40.9673H31.3968L31.2121 8.63989Z" fill="#323F47" stroke="#323F47"/>
<path d="M42.5707 44.1993H37.2142L40.0772 41.1513C40.6313 40.5971 41.093 39.9505 41.3701 39.3964C41.7395 38.8422 41.8318 38.1956 41.8318 37.7338C41.8318 36.9025 41.5548 36.1636 40.9083 35.7018C40.3542 35.24 39.523 34.9629 38.5995 34.9629C37.9531 34.9629 37.3989 35.0552 36.7525 35.3323C36.1984 35.7018 35.6443 36.0712 35.2749 36.5331L34.9978 36.8102L35.829 37.8262L36.1984 37.4567C36.5678 37.0873 36.9372 36.8102 37.3989 36.6254C37.8607 36.4407 38.2301 36.3483 38.6919 36.3483C39.3383 36.3483 39.8001 36.4407 40.0772 36.7178C40.3542 36.9949 40.5389 37.272 40.5389 37.7338C40.5389 38.1956 40.2619 38.9345 39.1536 40.2276L35.2749 44.384V45.0306V45.4924H42.663L42.5707 44.1993Z" fill="#323F47" stroke="#323F47"/>
</g>
<defs>
<clipPath id="clip0_106_17">
<rect width="66" height="40" fill="white" transform="translate(5 6)"/>
</clipPath>
</defs>
</svg>
